<?xml version="1.0" standalone="no"?>
<!DOCTYPE svg PUBLIC "-//W3C//DTD SVG 20010904//EN"
 "http://www.w3.org/TR/2001/REC-SVG-20010904/DTD/svg10.dtd">
<svg version="1.0" xmlns="http://www.w3.org/2000/svg"
 width="260.000000pt" height="260.000000pt" viewBox="0 0 260.000000 260.000000"
 preserveAspectRatio="xMidYMid meet">
<metadata>
Created by potrace 1.11, written by Peter Selinger 2001-2013
</metadata>
<g transform="translate(0.000000,260.000000) scale(0.100000,-0.100000)"
fill="#000000" stroke="none">
<path d="M802 2385 c-117 -42 -331 -181 -399 -258 -26 -29 -61 -127 -208 -567
-187 -564 -190 -577 -154 -650 23 -47 92 -114 140 -135 21 -10 39 -23 39 -28
0 -9 -50 -122 -196 -445 -13 -29 -24 -54 -24 -56 0 -3 369 157 528 229 17 8
47 21 65 29 17 8 58 26 90 40 32 14 61 26 66 26 6 0 551 -192 755 -266 22 -8
40 -13 42 -11 3 3 134 394 134 400 0 3 -46 21 -102 42 -57 20 -112 40 -123 45
-11 4 -69 25 -130 46 -60 20 -123 43 -140 49 -16 7 -165 61 -330 119 -333 118
-352 129 -340 194 7 39 0 17 229 694 91 268 167 492 170 497 3 5 -7 13 -22 19
-22 7 -42 4 -90 -13z"/>
<path d="M1077 2323 c-8 -13 -129 -377 -131 -391 -1 -15 -4 -14 314 -127 118
-42 276 -98 350 -125 144 -52 360 -129 424 -151 43 -16 76 -51 76 -83 0 -17
-217 -672 -366 -1104 -39 -113 -38 -126 17 -124 73 2 329 153 435 257 l51 50
174 525 c151 456 174 532 172 582 -2 64 -28 114 -85 164 -50 44 -98 65 -328
143 -206 70 -574 200 -620 220 -29 12 -470 171 -475 171 -2 0 -6 -3 -8 -7z"/>
</g>
</svg>
